<svg width="219" height="224" viewBox="0 0 219 224" fill="none" xmlns="http://www.w3.org/2000/svg">
<path d="M0.990974 8.06578V8.06578C4.98625 7.22764 9.05754 6.8052 13.1398 6.8052L15 6.8052L17.7897 7.03768C19.9267 7.21576 22.0466 7.55949 24.1303 8.06578V8.06578V8.06578C28.0264 9.22036 31.753 10.884 35.2138 13.0137L36.5 13.8052L38.1298 15.0276C41.0364 17.2075 43.7239 19.6651 46.1543 22.3656L47 23.3052L49.5999 26.7261L52 30.3052C71 55.8052 46.5 203.805 87 188.805L84.5 192.805L81.6897 196.684L79.0222 199.907L77.0089 201.893C76.3931 202.501 75.7222 203.05 75.005 203.534L72.75 205.055L71.1291 205.954C69.5737 206.817 67.9339 207.518 66.2354 208.047L65.1221 208.393L63.312 208.741C62.0635 208.981 60.7973 209.118 59.5262 209.148L58.4578 209.174C54.8243 209.261 51.1893 209.079 47.5828 208.628V208.628C45.8651 208.413 44.1729 208.029 42.5307 207.482L39.6808 206.532C38.2288 206.048 36.8129 205.462 35.4439 204.777V204.777C32.8317 203.471 30.4472 201.752 28.3821 199.687L27.5 198.805L25.811 197.116C23.9424 195.248 22.2793 193.184 20.8503 190.961L20.75 190.805L19.878 189.449C18.9608 188.022 18.1585 186.525 17.4786 184.971L17.0109 183.901C15.6746 180.847 14.6898 177.651 14.0754 174.374L13.5 171.305L11.5 157.305L8.49998 109.805L0.990974 8.06578Z" fill="url(#paint0_linear_2_10)"/>
<path d="M102.175 24.0313L103.456 22.2394C104.327 21.0217 105.319 19.8956 106.417 18.8783V18.8783C107.558 17.8217 108.797 16.8765 110.117 16.0555L111.631 15.1137L115.115 13.5017V13.5017C117.77 12.2783 120.647 11.6087 123.569 11.5339L124.014 11.5225L126.654 11.5928C128.017 11.6291 129.375 11.7748 130.714 12.0286V12.0286C132.596 12.3851 134.369 13.1721 135.896 14.3281L136.223 14.5755C137.098 15.2384 137.901 15.9921 138.618 16.8239L138.803 17.0375C140.126 18.5721 141.17 20.3259 141.89 22.22L142.497 23.8165C143.019 25.1917 143.443 26.6025 143.766 28.038L144.717 32.2764L146.675 45.8482L147.458 61.5079L148.11 87.477L149.612 111.505L150.086 119.495L150.559 127.485L151.166 135.209L152.304 142.64L153.713 150.117L155.55 157.77L157.704 164.687L158.094 165.714C158.82 167.624 159.714 169.466 160.765 171.218V171.218L162.529 173.753L164.293 176.288L165.033 177.141C166.146 178.426 167.374 179.606 168.701 180.668L169.026 180.928L172.844 183.655C173.762 184.311 174.733 184.887 175.748 185.379L177.637 186.295C179.124 187.015 180.681 187.58 182.284 187.98L186.331 188.992L192.588 190.027L196.922 190.35L201.455 190.35L207.596 189.544L212.092 188.41L214 187.892L216.264 187.051L216.161 187.223C215.458 188.395 214.576 189.45 213.547 190.35V190.35L210.313 192.938L206.819 195.137L205.147 196.225C202.691 197.824 200.095 199.2 197.393 200.335L190.254 203.333L185.206 205.237L179.475 206.615L172.69 207.581L165.662 207.819L159.185 207.581L157.912 207.397C154.623 206.92 151.392 206.103 148.272 204.959L147.483 204.67L142.67 202.416L138.528 199.797L134.386 196.69L133.262 195.774C130.727 193.708 128.374 191.429 126.23 188.96L125.432 188.041L124.556 186.949C122.503 184.391 120.651 181.679 119.014 178.838L118.453 177.864V177.864C116.478 173.955 114.817 169.894 113.488 165.722L113.412 165.483L111.695 158.761L110.9 154.909L110.554 152.298L109.179 138.791L108.774 132.057L108.59 128.575L108.544 125.169L108.831 74.0989L109.166 42.0369L109.166 36.2552C109.166 35.3859 109.103 34.5178 108.978 33.6577L108.699 31.7471C108.564 30.8186 108.36 29.9014 108.089 29.003L107.767 27.9342C107.49 27.0172 106.998 26.1796 106.332 25.4913L106.003 25.1509C105.593 24.7271 105.112 24.3784 104.581 24.1207V24.1207C104.015 23.8457 103.373 23.7693 102.758 23.9038L102.175 24.0313Z" fill="url(#paint1_linear_2_10)"/>
<path d="M63 150L62.5 147.5L65.0645 141.958L68.0234 135.376L71.2238 129.277L74.7864 123.42L78.2858 117.167L83.8994 106.973L88.2768 99.8165L90.9866 95.0917L93.8354 89.7415L95.5725 85.503L97.4808 80.8297L98.5727 78.381L99.2345 76.164L99.8301 73.4837L100.393 71.2667L101.154 67.8254L101.409 65.5753V62.7626V59.3518V37.9757V35.6218V32.919V29.5877V27.1019V26.3296C101.409 25.7285 101.549 25.1356 101.818 24.5979C101.92 24.3944 102.048 24.2056 102.2 24.0364L102.212 24.0238C102.678 23.5054 103.412 23.3201 104.069 23.5547L104.557 23.7291L105.68 24.6649C106.276 25.1615 106.781 25.7582 107.171 26.4283C107.822 27.5443 108.285 28.7598 108.541 30.0262L108.915 31.873C109.205 33.3075 109.351 34.7674 109.351 36.2309V45.4102L108.741 88.3675V122.234V129.556L108.947 135.324L109.351 139.93L110.063 147.5L110.877 154.982L86.9961 188.812L85.4024 190.19L83.5 190.841H81.5H79.912L78.1438 190.5L76.7014 189.5L73.6305 187.398L71.8624 185.351L70.2804 182.326L68.6054 178.418L67.6748 176.092L66.6511 172.555L65.5 168L64.5 163.5L64 159.5L63.5 155.5L63 152.5V150Z" fill="url(#paint2_linear_2_10)"/>
<defs>
<linearGradient id="paint0_linear_2_10" x1="42" y1="107.305" x2="1" y2="122.305" gradientUnits="userSpaceOnUse">
<stop stop-color="#557EA4"/>
<stop offset="1" stop-color="#2FCCBE"/>
</linearGradient>
<linearGradient id="paint1_linear_2_10" x1="118.716" y1="176.917" x2="159.175" y2="161.505" gradientUnits="userSpaceOnUse">
<stop stop-color="#29CAB9"/>
<stop offset="1" stop-color="#446987"/>
</linearGradient>
<linearGradient id="paint2_linear_2_10" x1="120.242" y1="84.4154" x2="37.1712" y2="115.034" gradientUnits="userSpaceOnUse">
<stop offset="0.479167" stop-color="#446987"/>
<stop offset="1" stop-color="#2FCCBE"/>
</linearGradient>
</defs>
</svg>
